<svg id="Gradient" height="512" viewBox="0 0 512 512" width="512" xmlns="http://www.w3.org/2000/svg" xmlns:xlink="http://www.w3.org/1999/xlink"><linearGradient id="linear-gradient" gradientUnits="userSpaceOnUse" x1="256" x2="256" y1="480" y2="32"><stop offset="0" stop-color="#12c2e9"/><stop offset=".5" stop-color="#c471ed"/><stop offset="1" stop-color="#f64f59"/></linearGradient><path d="m304 320a8 8 0 0 1 0 16h-80a8 8 0 0 1 0-16zm32 0a8 8 0 0 0 0 16h8a8 8 0 0 0 0-16zm-216 96h-80a8 8 0 0 0 0 16h80a8 8 0 0 0 0-16zm40 0h-8a8 8 0 0 0 0 16h8a8 8 0 0 0 0-16zm304 0h-112a8 8 0 0 0 0 16h112a8 8 0 0 0 0-16zm-40-240c0-39.393-33.563-71.5-75.023-71.994a96.031 96.031 0 0 0 -185.954 0c-41.46.494-75.023 32.601-75.023 71.994 0 39.7 34.093 72 76 72h184c41.906 0 76-32.3 76-72zm-255.177-55.8a8 8 0 0 0 8.462-6.552 80.016 80.016 0 0 1 157.43 0 7.985 7.985 0 0 0 8.463 6.552c1.8-.133 3.381-.2 4.822-.2 33.084 0 60 25.122 60 56s-26.916 56-60 56h-184c-33.084 0-60-25.122-60-56s26.916-56 60-56c1.441 0 3.019.065 4.823.2zm271.177 151.8a56.063 56.063 0 0 0 -56 56 8 8 0 0 0 16 0 40 40 0 1 1 40 40h-280.861a55.985 55.985 0 1 0 -95.139-40 8 8 0 0 0 16 0 40 40 0 1 1 40 40h-96a8 8 0 0 0 0 16h232a40 40 0 1 1 -40 40 8 8 0 0 0 -16 0 56 56 0 1 0 95.139-40h144.861a56 56 0 0 0 0-112z" fill="url(#linear-gradient)"/></svg>