<svg height="512" viewBox="0 0 512 512" width="512" xmlns="http://www.w3.org/2000/svg"><g id="Flat"><path d="m88 416a16 16 0 0 0 16 16 16 16 0 0 0 16-16 16 16 0 0 0 16 16 16 16 0 0 0 16-16 16 16 0 0 0 16 16 16 16 0 0 0 16-16 16 16 0 0 0 16 16 16 16 0 0 0 16-16v-216h-128z" fill="#fdbf92"/><path d="m176 328h16v88h-16z" fill="#fdb683"/><path d="m144 328h16v88h-16z" fill="#fdb683"/><path d="m112 328h16v88h-16z" fill="#fdb683"/><path d="m184 272h32v24h-32z" fill="#fdc8a2"/><path d="m88 16h128v152h-128z" fill="#426887"/><circle cx="124" cy="132" fill="#35546d" r="12"/><circle cx="124" cy="92" fill="#35546d" r="12"/><path d="m88 168h128v32h-128z" fill="#f1ddc1"/><path d="m216 288-25.143-5.587a59.838 59.838 0 0 1 -46.857-58.413h-56v-24h128z" fill="#fdc8a2"/><path d="m88 200h128v16h-128z" fill="#fdbf92"/><path d="m24 288h240v112h-240z" fill="#96b268" transform="matrix(-1 0 0 -1 288 688)"/><path d="m56 288h176a32 32 0 0 0 32 32v48a32 32 0 0 0 -32 32h-176a32 32 0 0 0 -32-32v-48a32 32 0 0 0 32-32z" fill="#88a35a"/><circle cx="144" cy="344" fill="#96b268" r="32"/><path d="m88 224-22.627 22.627a32 32 0 0 0 -9.373 22.628v74.745a32 32 0 0 0 32-32v-24l12.6-3.6a59.839 59.839 0 0 0 43.4-57.536v-2.864z" fill="#fdc8a2"/><path d="m424 96a16 16 0 0 0 -16-16 16 16 0 0 0 -16 16 16 16 0 0 0 -16-16 16 16 0 0 0 -16 16 16 16 0 0 0 -16-16 16 16 0 0 0 -16 16 16 16 0 0 0 -16-16 16 16 0 0 0 -16 16v216h128z" fill="#fdbf92"/><path d="m320 96h16v88h-16z" fill="#fdb683"/><path d="m352 96h16v88h-16z" fill="#fdb683"/><path d="m384 96h16v88h-16z" fill="#fdb683"/><path d="m296 216h32v24h-32z" fill="#fdc8a2" transform="matrix(-1 0 0 -1 624 456)"/><path d="m296 312h128v184h-128z" fill="#e25740"/><path d="m296 224 25.143 5.587a59.838 59.838 0 0 1 46.857 58.413h56v24h-128z" fill="#fdc8a2"/><path d="m296 296h128v16h-128z" fill="#fdbf92" transform="matrix(-1 0 0 -1 720 608)"/><path d="m248 112h240v112h-240z" fill="#96b268"/><path d="m456 224h-176a32 32 0 0 0 -32-32v-48a32 32 0 0 0 32-32h176a32 32 0 0 0 32 32v48a32 32 0 0 0 -32 32z" fill="#88a35a"/><circle cx="368" cy="168" fill="#96b268" r="32"/><path d="m424 288 22.627-22.627a32 32 0 0 0 9.373-22.628v-74.745a32 32 0 0 0 -32 32v24l-12.6 3.6a59.839 59.839 0 0 0 -43.4 57.536v2.864z" fill="#fdc8a2"/><path d="m320 336h104v16h-104z" fill="#d64a34"/><g fill="#f1ddc1"><path d="m88 480a48.054 48.054 0 0 1 -48-48h16a32.036 32.036 0 0 0 32 32z"/><path d="m472 80h-16a32.036 32.036 0 0 0 -32-32v-16a48.054 48.054 0 0 1 48 48z"/><path d="m40 64h16v112h-16z"/><path d="m456 384h16v80h-16z"/></g></g></svg>