<svg height="512" viewBox="0 0 512 512" width="512" xmlns="http://www.w3.org/2000/svg"><g id="Flat"><path d="m224 208h64v96h-64z" fill="#4db6e4"/><path d="m224 232h64v16h-64z" fill="#3ba5d3"/><path d="m224 264h64v16h-64z" fill="#3ba5d3"/><path d="m46.164 204h219.672v16h-219.672z" fill="#3ba5d3" transform="matrix(.546 -.838 .838 .546 -106.791 226.864)"/><path d="m352 111.045h16v201.911h-16z" fill="#3ba5d3" transform="matrix(.832 -.555 .555 .832 -57.135 235.297)"/><path d="m128 352h256v16h-256z" fill="#3ba5d3"/><g fill="#4db6e4"><path d="m248 128h16v56h-16z"/><path d="m248 328h16v64h-16z"/><path d="m148 143.846h15.999v104.307h-15.999z" transform="matrix(.537 -.844 .844 .537 -93.11 222.384)"/><path d="m103.846 308h104.307v15.999h-104.307z" transform="matrix(.844 -.537 .537 .844 -145.266 133.158)"/><path d="m303.846 188h104.307v15.999h-104.307z" transform="matrix(.844 -.537 .537 .844 -49.571 221.774)"/><path d="m348 263.846h15.999v104.307h-15.999z" transform="matrix(.537 -.844 .844 .537 -101.725 446.691)"/><path d="m48 216h16v80h-16z"/><path d="m105.88 88h100.24v16.001h-100.24z" transform="matrix(.878 -.479 .479 .878 -26.922 86.425)"/><path d="m144 372.43h16v111.14h-16z" transform="matrix(.504 -.864 .864 .504 -294.286 343.638)"/><path d="m448 208h16v88h-16z"/><path d="m348 45.88h16.001v100.24h-16.001z" transform="matrix(.479 -.878 .878 .479 101.251 362.561)"/><path d="m304.43 420h111.14v16h-111.14z" transform="matrix(.864 -.504 .504 .864 -166.624 239.715)"/></g><path d="m48 160-8 32h32l-8-32z" fill="#cececc"/><path d="m32 184h48v16h-48z" fill="#dfdfdd"/><rect fill="#348ed8" height="60" rx="10" width="80" x="16" y="106"/><path d="m48 368-8 32h32l-8-32z" fill="#cececc"/><path d="m32 392h48v16h-48z" fill="#dfdfdd"/><rect fill="#348ed8" height="60" rx="10" width="80" x="16" y="314"/><path d="m448 160-8 32h32l-8-32z" fill="#cececc"/><path d="m432 184h48v16h-48z" fill="#dfdfdd"/><rect fill="#348ed8" height="60" rx="10" width="80" x="416" y="106"/><path d="m448 368-8 32h32l-8-32z" fill="#cececc"/><path d="m432 392h48v16h-48z" fill="#dfdfdd"/><rect fill="#348ed8" height="60" rx="10" width="80" x="416" y="314"/><path d="m248 72-8 32h32l-8-32z" fill="#cececc"/><path d="m232 96h48v16h-48z" fill="#dfdfdd"/><rect fill="#348ed8" height="60" rx="10" width="80" x="216" y="18"/><path d="m248 456-8 32h32l-8-32z" fill="#cececc"/><path d="m232 480h48v16h-48z" fill="#dfdfdd"/><rect fill="#348ed8" height="60" rx="10" width="80" x="216" y="402"/></g></svg>